# AST/ASF file generated using VICON BodyLanguage
# -----------------------------------------------
:version 1.10
:name VICON
:units
  mass 1.0
  length 0.45
  angle deg
:documentation
   .ast/.asf automatically generated from VICON data using
   VICON BodyBuilder and BodyLanguage model FoxedUp or BRILLIANT.MOD
:root
   order TX TY TZ RX RY RZ
   axis XYZ
   position 0 0 0  
   orientation 0 0 0 
:bonedata
  begin
     id 1 
     name lhipjoint
     direction 0.440178 -0.822639 0.359871 
     length 2.53113 
     axis 0 0 0  XYZ
  end
  begin
     id 2 
     name lfemur
     direction 0.34202 -0.939693 0  
     length 7.88132  
     axis 0 0 20  XYZ
    dof rx ry rz
    limits (-160.0 20.0)
           (-70.0 70.0)
           (-60.0 70.0)
  end
  begin
     id 3 
     name ltibia
     direction 0.34202 -0.939693 0   
     length 8.43783   
     axis 0 0 20   XYZ
    dof rx
    limits (-10.0 170.0)
  end
  begin
     id 4 
     name lfoot
     direction 0.0886351 -0.243523 0.965837   
     length 2.63414   
     axis -90 7.62852e-016 20   XYZ
    dof rx rz
    limits (-45.0 90.0)
           (-70.0 20.0)
  end
  begin
     id 5 
     name ltoes
     direction 1.53703e-011 -4.21717e-011 1   
     length 1.31427   
     axis -90 7.62852e-016 20   XYZ
    dof rx
    limits (-90.0 20.0)
  end
  begin
     id 6 
     name rhipjoint
     direction -0.399779 -0.839773 0.367367   
     length 2.47948  
     axis 0 0 0  XYZ 
  end
  begin
     id 7 
     name rfemur
     direction -0.34202 -0.939693 0   
     length 7.74806   
     axis 0 0 -20   XYZ
    dof rx ry rz
    limits (-160.0 20.0)
           (-70.0 70.0)
           (-70.0 60.0)
  end
  begin
     id 8 
     name rtibia
     direction -0.34202 -0.939693 0   
     length 8.74432   
     axis 0 0 -20   XYZ
    dof rx
    limits (-10.0 170.0)
 end
 begin
     id 9 
     name rfoot
     direction -0.108514 -0.298139 0.948334   
     length 2.66102  
     axis -90 -7.62852e-016 -20   XYZ
    dof rx rz
    limits (-45.0 90.0)
           (-20.0 70.0)
  end
  begin
     id 10 
     name rtoes
     direction -1.53392e-011 -4.22077e-011 1   
     length 1.31983   
     axis -90 -7.62852e-016 -20   XYZ
    dof rx
    limits (-90.0 20.0)
  end
  begin
     id 11 
     name lowerback
     direction 0.0113257 0.999866 0.0118602   
     length 2.58694   
     axis 0 0 0   XYZ
    dof rx ry rz
    limits (-20.0 45.0)
           (-30.0 30.0)
           (-30.0 30.0)
  end
  begin
     id 12 
     name upperback
     direction -0.0164747 0.995193 -0.0965375   
     length 2.52368   
     axis 0 0 0   XYZ
    dof rx ry rz
    limits (-20.0 45.0)
           (-30.0 30.0)
           (-30.0 30.0)
  end
  begin
     id 13 
     name thorax
     direction -0.0194301 0.99433 -0.104552   
     length 2.56099   
     axis 0 0 0   XYZ
    dof rx ry rz
    limits (-20.0 45.0)
           (-30.0 30.0)
           (-30.0 30.0)
  end
  begin
     id 14 
     name lowerneck
     direction 0.0148543 0.995587 -0.092657   
     length 1.71582   
     axis 0 0 0   XYZ
    dof rx ry rz
    limits (-20.0 45.0)
           (-30.0 30.0)
           (-30.0 30.0)
  end
  begin
     id 15 
     name upperneck
     direction -0.0135467 0.993656 -0.111639   
     length 1.68937   
     axis 0 0 0   XYZ
    dof rx ry rz
    limits (-20.0 45.0)
           (-30.0 30.0)
           (-30.0 30.0)
  end
  begin
     id 16
     name head
     direction -0.00615349 0.999547 -0.029448  
     length 1.7462  
     axis 0 0 0   XYZ
    dof rx ry rz
    limits (-20.0 45.0)
           (-30.0 30.0)
           (-30.0 30.0)
  end
  begin
     id 17 
     name lclavicle
     direction 0.988267 0.149885 0.0293713  
     length 4.47222  
     axis 0 0 0   XYZ
    dof ry rz
    limits (-20.0 10.0)
           (0.0 20.0)
  end
  begin
     id 18 
     name lhumerus
     direction 1 -4.48986e-011 -1.14833e-027   
     length 5.37148   
     axis 180 -30 -90   XYZ
    dof rx ry rz
    limits (-60.0 90.0)
           (-90.0 90.0)
           (-90.0 90.0)
  end
  begin
     id 19
     name lradius
     direction 0.999998 0.00170963 -0.000987055   
     length 3.94212   
     axis 180 -30 -90   XYZ
    dof rx
    limits (-10.0 170.0)
  end
  begin
     id 20
     name lwrist
     direction 0.999998 7.53149e-005 -0.00194706   
     length 1.97106   
     axis 4.65056e-015 90 90   XYZ
    dof ry
    limits (-180.0 0.0)
 end
  begin
     id 21 
     name lhand
     direction 1 -4.48973e-011 -1.31746e-026   
     length 1.17917   
     axis 8.4065e-015 90 90   XYZ
    dof rx rz
    limits (-90.0 90.0)
           (-45.0 45.0)
  end
  begin
     id 22 
     name lfingers
     direction 1 -4.49107e-011 -2.63492e-026   
     length 0.950679   
     axis 1.6813e-014 90 90   XYZ
    dof rx
    limits (0.0 90.0)
  end
  begin
     id 23
     name lthumb
     direction 0.707107 -6.35048e-011 0.707107   
     length 1.36499   
     axis -90 45 2.85299e-015   XYZ
    dof rx rz
    limits (-45.0 45.0)
           (-45.0 45.0)
  end
  begin
     id 24 
     name rclavicle
     direction -0.996699 0.0642895 -0.0495725   
     length 4.62611  
     axis 0 0 0   XYZ 
    dof ry rz
    limits (-10.0 20.0)
           (-20.0 0.0)
  end
  begin
     id 25 
     name rhumerus
     direction -1 -4.48919e-011 -2.41059e-027  
     length 5.4981   
     axis 180 30 90   XYZ
    dof rx ry rz
    limits (-90.0 60.0)
           (-90.0 90.0)
           (-90.0 90.0)
  end
  begin
     id 26 
     name rradius
     direction -0.999999 0.00118101 -0.000681858   
     length 3.48381   
     axis 180 30 90   XYZ
    dof rx
    limits (-10.0 170.0)
  end
  begin
     id 27 
     name rwrist
     direction -0.999999 0.000321823 -0.00132288   
     length 1.7419   
     axis 4.65056e-015 -90 -90   XYZ
    dof ry
    limits (-180.0 0.0)
  end
  begin
     id 28
     name rhand
     direction -1 -4.49022e-011 -1.31746e-026   
     length 1.34932   
     axis 8.4065e-015 -90 -90   XYZ
    dof rx rz
    limits (-90.0 90.0)
           (-45.0 45.0)
  end
  begin
     id 29
     name rfingers
     direction -1 -4.49178e-011 -2.63492e-026   
     length 1.08785   
     axis 1.6813e-014 -90 -90   XYZ
    dof rx
    limits (0.0 90.0)
  end
  begin
     id 30
     name rthumb
     direction -0.707107 -6.34713e-011 0.707107   
     length 1.56195   
     axis -90 -45 -2.85299e-015   XYZ
    dof rx rz
    limits (-45.0 45.0)
           (-45.0 45.0)
  end
:hierarchy
  begin
    root lhipjoint rhipjoint lowerback
    lhipjoint lfemur
    lfemur ltibia
    ltibia lfoot
    lfoot ltoes
    rhipjoint rfemur
    rfemur rtibia
    rtibia rfoot
    rfoot rtoes
    lowerback upperback
    upperback thorax
    thorax lowerneck lclavicle rclavicle
    lowerneck upperneck
    upperneck head
    lclavicle lhumerus
    lhumerus lradius
    lradius lwrist
    lwrist lhand lthumb
    lhand lfingers
    rclavicle rhumerus
    rhumerus rradius
    rradius rwrist
    rwrist rhand rthumb
    rhand rfingers
  end

#!OML:ASF X:\für Bonn\!DataBase\2005_08_10_Bjorn_Final\c3d\bjorn.ASF
:FULLY-SPECIFIED
:DEGREES
1
root 0.534182 19.1034 1.46265 -172.326 -2.23024 179.729
lowerback -6.02151 1.7116 3.93363
upperback 5.1266 1.79186 -0.381364
thorax 8.95613 1.07607 -2.37455
lowerneck -19.9405 -2.13397 -0.437869
upperneck 16.9183 -2.57142 -1.48573
head 8.53991 -1.43369 -0.770357
rclavicle -5.86415e-015 -9.93923e-015
rhumerus 81.684 1.89677 -73.5571
rradius 7.21206
rwrist 48.5776
rhand -8.20541 7.0511
rfingers 7.12502
rthumb 17.7112 -22.1623
lclavicle -5.86415e-015 -9.93923e-015
lhumerus 83.592 -7.2435 75.7861
lradius 5.99285
lwrist -51.3139
lhand -7.38404 -6.76017
lfingers 7.12502
lthumb 18.5014 22.38
rfemur -14.7673 -14.7148 17.7843
rtibia 31.552
rfoot -18.0119 19.8484
rtoes -4.57627
lfemur -14.1321 12.4938 -18.5324
ltibia 31.4333
lfoot -18.9248 -9.0314
ltoes -5.69456
2
root 0.527645 19.1095 1.47326 -172.322 -2.34939 179.656
lowerback -5.85132 1.66186 3.89146
upperback 5.18226 1.7319 -0.412887
thorax 8.91143 1.04305 -2.39627
lowerneck -19.9268 -2.12304 -0.435756
upperneck 16.7606 -2.56318 -1.43176
head 8.48464 -1.42145 -0.748991
rclavicle 2.41523e-014 -1.98785e-016
rhumerus 81.6564 1.97529 -73.5762
rradius 7.23956
rwrist 48.6238
rhand -8.35891 6.93795
rfingers 7.12502
rthumb 17.5635 -22.2887
lclavicle 2.41523e-014 -1.98785e-016
lhumerus 83.5459 -7.30871 75.689
lradius 5.88477
lwrist -52.0112
lhand -7.5824 -6.90092
lfingers 7.12502
lthumb 18.3106 22.2573
rfemur -14.7989 -13.9905 17.758
rtibia 31.5942
rfoot -18.4802 18.8367
rtoes -5.63995
lfemur -14.1685 12.0382 -18.6795
ltibia 31.4269
lfoot -18.9235 -8.60991
ltoes -5.82097
3
root 0.520734 19.1143 1.4871 -172.32 -2.45617 179.598
lowerback -5.63044 1.61243 3.84773
upperback 5.2216 1.67304 -0.42209
thorax 8.81815 1.00862 -2.3942
lowerneck -19.8122 -2.11233 -0.453494
upperneck 16.5058 -2.54806 -1.38775
head 8.37922 -1.40804 -0.724428
rclavicle 9.93923e-017 -4.96962e-015
rhumerus 81.6008 2.06212 -73.5623
rradius 7.28417
rwrist 48.7689
rhand -8.48514 6.84611
rfingers 7.12502
rthumb 17.442 -22.3914
lclavicle 9.93923e-017 -4.96962e-015
lhumerus 83.4646 -7.36679 75.6241
lradius 5.80819
lwrist -52.6256
lhand -7.80736 -6.98863
lfingers 7.12502
lthumb 18.0942 22.1897
rfemur -14.861 -13.3665 17.7419
rtibia 31.6591
rfoot -18.8318 17.9723
rtoes -6.39739
lfemur -14.2188 11.5201 -18.8156
ltibia 31.4336
lfoot -18.9165 -8.14403
ltoes -5.8375
4
root 0.513874 19.1188 1.5005 -172.395 -2.53589 179.461
lowerback -5.33004 1.57921 3.7418
upperback 5.30331 1.64324 -0.473803
thorax 8.7256 0.984963 -2.3995
lowerneck -19.7809 -2.10845 -0.402436
upperneck 16.3225 -2.55681 -1.36753
head 8.31116 -1.40439 -0.724163
rclavicle -2.17669e-014 1.37161e-014
rhumerus 81.5506 2.08415 -73.5644
rradius 7.3677
rwrist 48.8451
rhand -8.50096 6.71174
rfingers 7.12502
rthumb 17.4268 -22.5271
lclavicle -2.17669e-014 1.37161e-014
lhumerus 83.4247 -7.46224 75.5336
lradius 5.77047
lwrist -53.1981
lhand -8.09813 -7.07216
lfingers 7.12502
lthumb 17.8144 22.1319
rfemur -14.8554 -12.9048 17.6025
rtibia 31.7468
rfoot -19.0998 17.2859
rtoes -7.25906
lfemur -14.1932 11.1297 -19.0219
ltibia 31.4591
lfoot -18.8904 -7.77516
ltoes -5.7816
5
root 0.505968 19.1226 1.51632 -172.517 -2.64771 179.428
lowerback -4.94982 1.5318 3.76149
upperback 5.38796 1.58069 -0.496697
thorax 8.59097 0.950457 -2.45029
lowerneck -19.7984 -2.099 -0.398079
upperneck 16.2074 -2.55204 -1.31227
head 8.27599 -1.3942 -0.704365
rclavicle 1.23246e-014 -5.96354e-015
rhumerus 81.4812 2.14214 -73.5759
rradius 7.47927
rwrist 48.9545
rhand -8.47792 6.57492
rfingers 7.12502
rthumb 17.4489 -22.6619
lclavicle 1.23246e-014 -5.96354e-015
lhumerus 83.3542 -7.54958 75.4431
lradius 5.81243
lwrist -53.7025
lhand -8.45018 -7.09063
lfingers 7.12502
lthumb 17.4756 22.1439
rfemur -14.8177 -12.4376 17.5727
rtibia 31.8589
rfoot -19.3454 16.5737
rtoes -7.95132
lfemur -14.1396 10.6271 -19.1018
ltibia 31.5106
lfoot -18.8858 -7.35055
ltoes -5.78379
6
root 0.49841 19.1252 1.53329 -172.649 -2.73612 179.372
lowerback -4.52263 1.49132 3.74828
upperback 5.46103 1.53285 -0.528299
thorax 8.4162 0.920399 -2.49037
lowerneck -19.8573 -2.07402 -0.319909
upperneck 16.2039 -2.53479 -1.33007
head 8.28369 -1.38246 -0.721495
rclavicle 1.98785e-015 6.55989e-015
rhumerus 81.4075 2.19311 -73.5905
rradius 7.58547
rwrist 49.0644
rhand -8.40132 6.46646
rfingers 7.12502
rthumb 17.5227 -22.7638
lclavicle 1.98785e-015 6.55989e-015
lhumerus 83.2688 -7.6361 75.3462
lradius 5.87373
lwrist -54.0814
lhand -8.94814 -7.08063
lfingers 7.12502
lthumb 16.9964 22.1958
rfemur -14.7982 -11.9939 17.5156
rtibia 32.0131
rfoot -19.5806 15.9259
rtoes -8.71184
lfemur -14.0935 10.1868 -19.2094
ltibia 31.5814
lfoot -18.8754 -6.91586
ltoes -6.07837
7
root 0.490052 19.1266 1.55283 -172.779 -2.82923 179.321
lowerback -4.05968 1.44071 3.73455
upperback 5.53727 1.46907 -0.533552
thorax 8.22203 0.880528 -2.50422
lowerneck -19.9413 -2.04742 -0.301948
upperneck 16.1667 -2.49901 -1.33653
head 8.28554 -1.36415 -0.722584
rclavicle 7.25564e-015 -9.34288e-015
rhumerus 81.3841 2.27217 -73.5631
rradius 7.66228
rwrist 49.1399
rhand -8.33409 6.3157
rfingers 7.12502
rthumb 17.5874 -22.9088
lclavicle 7.25564e-015 -9.34288e-015
lhumerus 83.2738 -7.68472 75.2895
lradius 5.82389
lwrist -54.3382
lhand -9.52573 -7.03042
lfingers 7.12502
lthumb 16.4403 22.2929
rfemur -14.816 -11.6554 17.4626
rtibia 32.2023
rfoot -19.7867 15.338
rtoes -9.44754
lfemur -14.0724 9.64788 -19.3179
ltibia 31.6904
lfoot -18.8983 -6.42082
ltoes -6.19885
8
root 0.482427 19.1259 1.57314 -172.889 -2.9107 179.251
lowerback -3.59112 1.39823 3.71335
upperback 5.59698 1.42022 -0.569247
thorax 8.00873 0.848376 -2.54378
lowerneck -19.9741 -2.01617 -0.177643
upperneck 16.0765 -2.47393 -1.41233
head 8.25809 -1.35141 -0.764274
rclavicle 2.3556e-014 6.95746e-015
rhumerus 81.3766 2.31639 -73.5674
rradius 7.70105
rwrist 49.2094
rhand -8.24074 6.20391
rfingers 7.12502
rthumb 17.6772 -23.0125
lclavicle 2.3556e-014 6.95746e-015
lhumerus 83.3107 -7.72456 75.1866
lradius 5.76453
lwrist -54.45
lhand -10.2433 -7.01945
lfingers 7.12502
lthumb 15.7493 22.3598
rfemur -14.8988 -11.3553 17.3879
rtibia 32.4594
rfoot -19.9784 14.8406
rtoes -10.1822
lfemur -14.0959 9.12248 -19.4567
ltibia 31.8268
lfoot -18.9274 -5.87795
ltoes -6.72727
